<svg id="Layer_1" data-name="Layer 1" xmlns="http://www.w3.org/2000/svg" viewBox="0 0 101.60477 95.66356">
  <defs>
    <style>
      .cls-1 {
        isolation: isolate;
      }

      .cls-2 {
        fill: #989898;
      }

      .cls-3 {
        fill: #b3b3b3;
      }

      .cls-4 {
        fill: #a8a8a8;
      }

      .cls-5 {
        fill: #d5d5d5;
      }

      .cls-6 {
        fill: #b1b1b1;
      }

      .cls-7 {
        fill: #9d9d9d;
      }
    </style>
  </defs>
  <g class="cls-1">
    <polygon class="cls-2" points="98.748 8.918 100.235 78.275 39.344 69.718 37.858 0.36 98.748 8.918"/>
    <polygon class="cls-3" points="37.858 0.36 39.344 69.718 2.856 86.746 1.37 17.388 37.858 0.36"/>
    <polygon class="cls-4" points="62.26 25.946 63.747 95.304 2.856 86.746 1.37 17.388 62.26 25.946"/>
    <polygon class="cls-5" points="98.748 8.918 100.235 78.275 63.747 95.304 62.26 25.946 98.748 8.918"/>
    <polygon class="cls-6" points="98.748 8.918 62.26 25.946 1.37 17.388 37.858 0.36 98.748 8.918"/>
    <polygon class="cls-2" points="62.604 26.306 64.09 95.664 1.486 86.865 0 17.507 62.604 26.306"/>
    <polygon class="cls-3" points="100.118 8.798 101.605 78.156 64.09 95.664 62.604 26.306 100.118 8.798"/>
    <path class="cls-7" d="M292.7168,348.6677l62.60374,8.79839-37.5147,17.50726L255.20209,366.175Zm24.74565,25.94566,36.488-17.0281-60.89024-8.55757-36.488,17.0281,60.89024,8.55757" transform="translate(-255.20209 -348.6677)"/>
  </g>
</svg>
