<svg id="Layer_1" data-name="Layer 1" xmlns="http://www.w3.org/2000/svg" xmlns:xlink="http://www.w3.org/1999/xlink" viewBox="0 0 46.49701 72.32357">
  <defs>
    <style>
      .cls-1 {
        fill: none;
      }

      .cls-2 {
        isolation: isolate;
      }

      .cls-3 {
        clip-path: url(#clip-path);
      }

      .cls-4 {
        fill: #828282;
      }

      .cls-5 {
        fill: #848484;
      }

      .cls-6 {
        fill: #868686;
      }

      .cls-7 {
        fill: #888;
      }

      .cls-8 {
        fill: #8a8a8a;
      }

      .cls-9 {
        fill: #8c8c8c;
      }

      .cls-10 {
        fill: #8e8e8e;
      }

      .cls-11 {
        fill: #909090;
      }

      .cls-12 {
        fill: #929292;
      }

      .cls-13 {
        fill: #949494;
      }

      .cls-14 {
        fill: #969696;
      }

      .cls-15 {
        fill: #989898;
      }

      .cls-16 {
        fill: #9a9a9a;
      }

      .cls-17 {
        fill: #9c9c9c;
      }

      .cls-18 {
        fill: #9e9e9e;
      }

      .cls-19 {
        fill: #a0a0a0;
      }

      .cls-20 {
        clip-path: url(#clip-path-2);
      }

      .cls-21 {
        fill: #858585;
      }

      .cls-22 {
        clip-path: url(#clip-path-3);
      }

      .cls-23 {
        fill: #a3a3a3;
      }

      .cls-24 {
        fill: #a8a8a8;
      }

      .cls-25 {
        fill: #adadad;
      }

      .cls-26 {
        fill: #b3b3b3;
      }

      .cls-27 {
        fill: #b8b8b8;
      }

      .cls-28 {
        fill: #bdbdbd;
      }

      .cls-29 {
        fill: #c2c2c2;
      }

      .cls-30 {
        fill: #c7c7c7;
      }

      .cls-31 {
        fill: #ccc;
      }

      .cls-32 {
        fill: #d1d1d1;
      }

      .cls-33 {
        fill: #999;
      }

      .cls-34 {
        fill: #8f8f8f;
      }

      .cls-35 {
        fill: #c3c3c3;
      }

      .cls-36 {
        clip-path: url(#clip-path-4);
      }

      .cls-37 {
        fill: #9b9b9b;
      }
    </style>
    <clipPath id="clip-path" transform="translate(-282.74804 -360.33748)">
      <path class="cls-1" d="M306.78892,364.40681l21.23794,55.47171c-.852-2.22532-3.7191-3.61371-7.819-3.41324-6.12909.29969-12.72278,4.02907-14.70055,8.31035a4.8398,4.8398,0,0,0-.3038,3.816l-21.238-55.4717a4.83985,4.83985,0,0,1,.30381-3.816c1.97777-4.28128,8.57146-8.01066,14.70055-8.31035C303.06982,360.79311,305.93693,362.1815,306.78892,364.40681Z"/>
    </clipPath>
    <clipPath id="clip-path-2" transform="translate(-282.74804 -360.33748)">
      <path class="cls-1" d="M306.82207,430.60027a4.40152,4.40152,0,0,1-1.61848-2.00859L283.96565,373.12a4.40157,4.40157,0,0,0,1.61848,2.00859c.54665,1.42786,1.27554,3.33164,1.8222,4.75948.5796,1.5139,1.35243,3.53242,1.932,5.04632.60158,1.57128,1.40371,3.6663,2.00528,5.23758.61257,1.6,1.42934,3.7333,2.0419,5.33328.61258,1.6,1.42937,3.73339,2.04195,5.33341.60162,1.57138,1.40379,3.66656,2.0054,5.23794.57968,1.51408,1.35261,3.53285,1.93228,5.04692l1.82253,4.76032.65811,1.7189.69769,1.82233.72409,1.89126.73729,1.92574.73729,1.92575.72409,1.89127.6977,1.82231Z"/>
    </clipPath>
    <clipPath id="clip-path-3" transform="translate(-282.74804 -360.33748)">
      <path class="cls-1" d="M306.82207,430.60027a7.07662,7.07662,0,0,1-.65811-1.71889l-1.42179-3.71358-.73729-1.92575q-1.40862-3.67924-2.81718-7.35823-7.80208-20.37856-15.60358-40.75523a9.94687,9.94687,0,0,0,6.20717,1.40467c6.12086-.29929,12.71452-4.02865,14.69493-8.31565a4.83277,4.83277,0,0,0,.30258-3.81114l21.23793,55.47172a4.83268,4.83268,0,0,1-.30257,3.81112c-1.98041,4.287-8.57407,8.01637-14.69493,8.31565A9.94668,9.94668,0,0,1,306.82207,430.60027Z"/>
    </clipPath>
    <clipPath id="clip-path-4" transform="translate(-282.74804 -360.33748)">
      <path class="cls-1" d="M307.72239,364.04889l21.23794,55.47171a5.23085,5.23085,0,0,1-.32789,4.12429c-2.14169,4.63612-9.26853,8.6713-15.8967,8.99539-4.43933.21707-7.54274-1.285-8.4649-3.69355L283.0329,373.475c.92216,2.40859,4.02557,3.91061,8.4649,3.69354,6.62817-.32409,13.755-4.35927,15.8967-8.99539A5.23087,5.23087,0,0,0,307.72239,364.04889Z"/>
    </clipPath>
  </defs>
  <g class="cls-2">
    <g class="cls-2">
      <g class="cls-3">
        <g class="cls-2">
          <path class="cls-4" d="M306.78892,364.40681l21.23794,55.47171c-.76053-1.98643-3.12675-3.306-6.54219-3.4238L300.24673,360.983c3.41544.11782,5.78166,1.43737,6.54219,3.42379" transform="translate(-282.74804 -360.33748)"/>
          <path class="cls-5" d="M300.24673,360.983l21.23794,55.4717q-.603-.0208-1.24879.00921l-21.23794-55.4717q.64529-.03045,1.24879-.00921" transform="translate(-282.74804 -360.33748)"/>
          <path class="cls-6" d="M298.99794,360.99223l21.23794,55.4717-.028.00135q-.48954.02394-.98226.07661l-21.23794-55.4717q.49234-.05246.98226-.07661l.028-.00135" transform="translate(-282.74804 -360.33748)"/>
          <path class="cls-7" d="M297.98768,361.07019l21.23794,55.4717q-.44824.04776-.89728.11829l-21.23794-55.4717q.44876-.07037.89728-.11829" transform="translate(-282.74804 -360.33748)"/>
          <path class="cls-8" d="M297.0904,361.18848l21.23794,55.4717q-.415.06507-.82919.1488l-21.23793-55.4717q.414-.0836.82918-.1488" transform="translate(-282.74804 -360.33748)"/>
          <path class="cls-9" d="M296.26122,361.33728l21.23793,55.4717q-.39614.08-.79032.17637l-21.23794-55.4717q.394-.09625.79033-.17637" transform="translate(-282.74804 -360.33748)"/>
          <path class="cls-10" d="M295.47089,361.51365l21.23794,55.4717q-.38685.09452-.77066.20417l-21.23794-55.4717q.38363-.10955.77066-.20417" transform="translate(-282.74804 -360.33748)"/>
          <path class="cls-11" d="M294.70023,361.71782l21.23794,55.4717q-.383.10938-.76194.23321L293.9383,361.951q.37869-.12372.76193-.23321" transform="translate(-282.74804 -360.33748)"/>
          <path class="cls-12" d="M293.9383,361.951l21.23793,55.4717q-.38325.1252-.76108.26456l-21.23794-55.4717q.37764-.13924.76109-.26456" transform="translate(-282.74804 -360.33748)"/>
          <path class="cls-13" d="M293.17721,362.21559l21.23794,55.4717q-.388.143-.769.3003l-21.23794-55.4717q.38078-.15714.769-.3003" transform="translate(-282.74804 -360.33748)"/>
          <path class="cls-14" d="M292.40825,362.51589l21.23794,55.4717q-.40021.16516-.79127.3452L291.617,362.86109q.39081-.17989.79127-.3452" transform="translate(-282.74804 -360.33748)"/>
          <path class="cls-15" d="M291.617,362.86109l21.23794,55.4717q-.42218.19434-.83192.405l-21.23794-55.4717q.40944-.21052.83192-.405" transform="translate(-282.74804 -360.33748)"/>
          <path class="cls-16" d="M290.78506,363.26613l21.23794,55.4717q-.46259.23787-.90682.49522l-21.23794-55.4717q.44379-.2571.90682-.49522" transform="translate(-282.74804 -360.33748)"/>
          <path class="cls-17" d="M289.87824,363.76135l21.23794,55.4717q-.54039.31308-1.04929.65262L288.829,364.414q.50809-.33909,1.04929-.65262" transform="translate(-282.74804 -360.33748)"/>
          <path class="cls-18" d="M288.829,364.414l21.23794,55.4717a17.3959,17.3959,0,0,0-1.50025,1.11918l-21.23794-55.4717A17.3959,17.3959,0,0,1,288.829,364.414" transform="translate(-282.74804 -360.33748)"/>
          <path class="cls-19" d="M287.3287,365.53315l21.23794,55.4717a13.54446,13.54446,0,0,0-1.83869,1.84627L285.49,367.37942a13.54446,13.54446,0,0,1,1.83869-1.84627" transform="translate(-282.74804 -360.33748)"/>
          <path class="cls-18" d="M285.49,367.37942l21.23794,55.4717a9.88423,9.88423,0,0,0-.87864,1.26718l-21.23794-55.4717a9.88423,9.88423,0,0,1,.87864-1.26718" transform="translate(-282.74804 -360.33748)"/>
          <path class="cls-17" d="M284.61137,368.6466l21.23794,55.4717q-.1887.32607-.342.65733-.0356.07707-.06891.1537l-21.23793-55.47171q.0333-.07661.0689-.15369.15294-.33107.342-.65733" transform="translate(-282.74804 -360.33748)"/>
          <path class="cls-16" d="M284.20049,369.45762l21.23793,55.47171a6.68376,6.68376,0,0,0-.25.66812l-21.23794-55.47171a6.68142,6.68142,0,0,1,.25006-.66812" transform="translate(-282.74804 -360.33748)"/>
          <path class="cls-15" d="M283.95043,370.12574l21.23794,55.47171a5.73541,5.73541,0,0,0-.14994.58227L283.80049,370.708a5.73559,5.73559,0,0,1,.14994-.58228" transform="translate(-282.74804 -360.33748)"/>
          <path class="cls-14" d="M283.80049,370.708l21.23794,55.4717a5.06021,5.06021,0,0,0-.07805.52831l-21.23794-55.4717a5.06021,5.06021,0,0,1,.07805-.52831" transform="translate(-282.74804 -360.33748)"/>
          <path class="cls-13" d="M283.72244,371.23633l21.23794,55.4717a4.57762,4.57762,0,0,0-.01968.49147l-21.23794-55.4717a4.57762,4.57762,0,0,1,.01968-.49147" transform="translate(-282.74804 -360.33748)"/>
          <path class="cls-12" d="M283.70276,371.7278l21.23794,55.4717a4.24081,4.24081,0,0,0,.03214.46565l-21.23794-55.4717a4.241,4.241,0,0,1-.03214-.46565" transform="translate(-282.74804 -360.33748)"/>
          <path class="cls-11" d="M283.7349,372.19345l21.23794,55.4717a4.024,4.024,0,0,0,.08244.4503l-21.23794-55.47171a4.02341,4.02341,0,0,1-.08244-.45029" transform="translate(-282.74804 -360.33748)"/>
          <path class="cls-10" d="M283.81734,372.64374l21.23794,55.47171a3.9178,3.9178,0,0,0,.13458.43989l-21.23794-55.4717a3.91733,3.91733,0,0,1-.13458-.4399" transform="translate(-282.74804 -360.33748)"/>
          <path class="cls-9" d="M283.95192,373.08364l21.23794,55.4717.01367.03625-21.23794-55.4717-.01367-.03625" transform="translate(-282.74804 -360.33748)"/>
        </g>
      </g>
    </g>
    <g class="cls-2">
      <g class="cls-20">
        <g class="cls-2">
          <path class="cls-21" d="M290.51152,376.54386l21.23794,55.4717c-3.41827-.11791-5.78515-1.43695-6.5459-3.424l-21.23794-55.4717c.76075,1.987,3.12763,3.30605,6.5459,3.424" transform="translate(-282.74804 -360.33748)"/>
        </g>
      </g>
    </g>
    <g class="cls-2">
      <g class="cls-22">
        <g class="cls-2">
          <path class="cls-18" d="M306.78893,364.40681l21.23794,55.4717.01367.03623L306.8026,364.443l-.01367-.03623" transform="translate(-282.74804 -360.33748)"/>
          <path class="cls-23" d="M306.8026,364.443l21.23794,55.4717a3.91984,3.91984,0,0,1,.13455.43977l-21.23794-55.4717a3.91984,3.91984,0,0,0-.13455-.43977" transform="translate(-282.74804 -360.33748)"/>
          <path class="cls-24" d="M306.93715,364.88281l21.23794,55.4717a4.02485,4.02485,0,0,1,.08239.45007l-21.23794-55.4717a4.02485,4.02485,0,0,0-.08239-.45007" transform="translate(-282.74804 -360.33748)"/>
          <path class="cls-25" d="M307.01954,365.33288l21.23794,55.4717a4.235,4.235,0,0,1,.03212.4653l-21.23794-55.4717a4.235,4.235,0,0,0-.03212-.4653" transform="translate(-282.74804 -360.33748)"/>
          <path class="cls-26" d="M307.05166,365.79818l21.23794,55.4717a4.57353,4.57353,0,0,1-.01965.49085L307.032,366.289a4.57353,4.57353,0,0,0,.01965-.49085" transform="translate(-282.74804 -360.33748)"/>
          <path class="cls-27" d="M307.032,366.289,328.27,421.76073a5.05712,5.05712,0,0,1-.07792.52752l-21.23794-55.4717a5.05712,5.05712,0,0,0,.07792-.52752" transform="translate(-282.74804 -360.33748)"/>
          <path class="cls-28" d="M306.95409,366.81655l21.23794,55.4717a5.725,5.725,0,0,1-.14966.58117l-21.23794-55.4717a5.72563,5.72563,0,0,0,.14966-.58117" transform="translate(-282.74804 -360.33748)"/>
          <path class="cls-29" d="M306.80443,367.39772l21.23794,55.4717a6.66584,6.66584,0,0,1-.24948.66659L306.555,368.06431a6.66675,6.66675,0,0,0,.24948-.66659" transform="translate(-282.74804 -360.33748)"/>
          <path class="cls-30" d="M306.555,368.06431l21.23794,55.4717q-.03321.07643-.06873.1533-.15336.332-.3429.6591l-21.23794-55.4717q.18919-.32693.3429-.6591.03552-.07687.06873-.1533" transform="translate(-282.74804 -360.33748)"/>
          <path class="cls-31" d="M306.14332,368.87671l21.23794,55.4717a9.90643,9.90643,0,0,1-.881,1.27053l-21.23794-55.4717a9.90643,9.90643,0,0,0,.881-1.27053" transform="translate(-282.74804 -360.33748)"/>
          <path class="cls-32" d="M305.26228,370.14724l21.23794,55.4717a13.56479,13.56479,0,0,1-1.84031,1.84786L303.422,371.9951a13.56479,13.56479,0,0,0,1.84031-1.84786" transform="translate(-282.74804 -360.33748)"/>
          <path class="cls-31" d="M303.422,371.9951l21.23794,55.4717a17.41031,17.41031,0,0,1-1.50157,1.12022l-21.23794-55.4717a17.41031,17.41031,0,0,0,1.50157-1.12022" transform="translate(-282.74804 -360.33748)"/>
          <path class="cls-30" d="M301.9204,373.11532l21.23794,55.4717q-.50847.33934-1.05.653l-21.23794-55.4717q.54071-.31324,1.05-.653" transform="translate(-282.74804 -360.33748)"/>
          <path class="cls-29" d="M300.87041,373.76836l21.23794,55.4717q-.44379.25708-.90676.49516l-21.23794-55.4717q.46253-.23781.90676-.49516" transform="translate(-282.74804 -360.33748)"/>
          <path class="cls-28" d="M299.96365,374.26352l21.23794,55.4717q-.4092.2104-.83138.40477l-21.23794-55.4717q.42188-.19419.83138-.40477" transform="translate(-282.74804 -360.33748)"/>
          <path class="cls-27" d="M299.13227,374.66829,320.37021,430.14q-.39055.17977-.79067.34493l-21.23794-55.4717q.39987-.165.79067-.34493" transform="translate(-282.74804 -360.33748)"/>
          <path class="cls-26" d="M298.3416,375.01322l21.23794,55.4717q-.381.15723-.76933.30043l-21.23794-55.4717q.38814-.14308.76933-.30043" transform="translate(-282.74804 -360.33748)"/>
          <path class="cls-25" d="M297.57227,375.31365l21.23794,55.4717q-.37706.139-.75987.2641l-21.23794-55.4717q.38262-.125.75987-.2641" transform="translate(-282.74804 -360.33748)"/>
          <path class="cls-24" d="M296.8124,375.57775l21.23794,55.4717q-.37787.12342-.76019.23266l-21.23794-55.4717q.38214-.10913.76019-.23266" transform="translate(-282.74804 -360.33748)"/>
          <path class="cls-23" d="M296.05221,375.81041l21.23794,55.4717q-.38307.10938-.76949.20386l-21.23794-55.4717q.38623-.09436.76949-.20386" transform="translate(-282.74804 -360.33748)"/>
          <path class="cls-18" d="M295.28272,376.01427l21.23794,55.4717q-.39335.09611-.789.17606l-21.23794-55.4717q.39544-.07985.789-.17606" transform="translate(-282.74804 -360.33748)"/>
          <path class="cls-33" d="M294.49374,376.19033l21.23794,55.4717q-.4131.08343-.82737.14848l-21.23794-55.4717q.414-.06494.82737-.14848" transform="translate(-282.74804 -360.33748)"/>
          <path class="cls-13" d="M293.66637,376.33881l21.23794,55.4717q-.44777.07021-.89526.118l-21.23794-55.4717q.44721-.04766.89526-.118" transform="translate(-282.74804 -360.33748)"/>
          <path class="cls-34" d="M292.77111,376.45684l21.23794,55.4717q-.49116.05234-.97982.07642l-.02807.00135-21.23794-55.4717.02807-.00135q.48828-.02386.97982-.07642" transform="translate(-282.74804 -360.33748)"/>
          <path class="cls-8" d="M291.76322,376.53461l21.23794,55.4717q-.64686.03054-1.2517.00925l-21.23794-55.4717q.60439.02085,1.2517-.00925" transform="translate(-282.74804 -360.33748)"/>
          <path class="cls-21" d="M290.51152,376.54386l21.23794,55.4717c-3.41827-.11791-5.78515-1.43695-6.5459-3.424l-21.23794-55.4717c.76075,1.987,3.12763,3.30605,6.5459,3.424" transform="translate(-282.74804 -360.33748)"/>
        </g>
      </g>
    </g>
    <path class="cls-35" d="M298.96994,360.99358c6.12087-.29929,9.49405,2.94275,7.51628,7.224-1.98041,4.287-8.57407,8.01636-14.69493,8.31565-6.12906.29969-9.50227-2.94232-7.52187-7.22933C286.24719,365.02265,292.84089,361.29327,298.96994,360.99358Z" transform="translate(-282.74804 -360.33748)"/>
    <g class="cls-2">
      <g class="cls-36">
        <g class="cls-2">
          <path class="cls-9" d="M307.72239,364.04889l21.23794,55.4717.01479.03921-21.23794-55.4717-.01479-.03921" transform="translate(-282.74804 -360.33748)"/>
          <path class="cls-10" d="M307.73718,364.0881l21.23794,55.4717a4.23892,4.23892,0,0,1,.14554.47572l-21.23794-55.4717a4.23892,4.23892,0,0,0-.14554-.47572" transform="translate(-282.74804 -360.33748)"/>
          <path class="cls-11" d="M307.88272,364.56382l21.23794,55.4717a4.35275,4.35275,0,0,1,.08914.48692l-21.23794-55.4717a4.35275,4.35275,0,0,0-.08914-.48692" transform="translate(-282.74804 -360.33748)"/>
          <path class="cls-12" d="M307.97186,365.05074l21.23794,55.4717a4.5864,4.5864,0,0,1,.03476.50346l-21.23794-55.4717a4.58623,4.58623,0,0,0-.03476-.50346" transform="translate(-282.74804 -360.33748)"/>
          <path class="cls-13" d="M308.00662,365.5542l21.23794,55.4717a4.95,4.95,0,0,1-.02128.53128l-21.23794-55.4717a4.95,4.95,0,0,0,.02128-.53128" transform="translate(-282.74804 -360.33748)"/>
          <path class="cls-14" d="M307.98534,366.08548l21.23794,55.4717a5.47328,5.47328,0,0,1-.08434.571L307.901,366.65646a5.47328,5.47328,0,0,0,.08434-.571" transform="translate(-282.74804 -360.33748)"/>
          <path class="cls-15" d="M307.901,366.65646l21.23794,55.4717a6.19956,6.19956,0,0,1-.162.62912L307.739,367.28558a6.19956,6.19956,0,0,0,.162-.62912" transform="translate(-282.74804 -360.33748)"/>
          <path class="cls-16" d="M307.739,367.28558l21.23794,55.4717a7.21613,7.21613,0,0,1-.27008.72164l-21.23794-55.4717a7.21613,7.21613,0,0,0,.27008-.72164" transform="translate(-282.74804 -360.33748)"/>
          <path class="cls-17" d="M307.46891,368.00722l21.23794,55.4717q-.036.08274-.07441.166-.166.35937-.37121.7135l-21.23794-55.4717q.20481-.35391.37121-.7135.03844-.08322.07441-.166" transform="translate(-282.74804 -360.33748)"/>
          <path class="cls-18" d="M307.02329,368.88669l21.23794,55.4717a10.72147,10.72147,0,0,1-.954,1.37557l-21.23794-55.4717a10.72147,10.72147,0,0,0,.954-1.37557" transform="translate(-282.74804 -360.33748)"/>
          <path class="cls-19" d="M306.06933,370.26226l21.23794,55.4717a14.67573,14.67573,0,0,1-1.99036,1.99851L304.079,372.26076a14.67511,14.67511,0,0,0,1.99036-1.9985" transform="translate(-282.74804 -360.33748)"/>
          <path class="cls-18" d="M304.079,372.26076l21.23794,55.47171a18.82528,18.82528,0,0,1-1.6239,1.21153l-21.23794-55.4717a18.82536,18.82536,0,0,0,1.6239-1.21154" transform="translate(-282.74804 -360.33748)"/>
          <path class="cls-17" d="M302.45507,373.4723,323.693,428.944q-.54989.367-1.13554.70626l-21.23794-55.4717q.58478-.33877,1.13554-.70626" transform="translate(-282.74804 -360.33748)"/>
          <path class="cls-16" d="M301.31953,374.17856l21.23794,55.4717q-.47976.27792-.98026.53529l-21.23794-55.4717q.5-.2571.98026-.53529" transform="translate(-282.74804 -360.33748)"/>
          <path class="cls-15" d="M300.33927,374.71385l21.23794,55.4717q-.44232.22743-.89869.43754l-21.23794-55.4717q.456-.20992.89869-.43754" transform="translate(-282.74804 -360.33748)"/>
          <path class="cls-14" d="M299.44058,375.15139l21.23794,55.4717q-.42217.19434-.85473.37288l-21.23794-55.4717q.43228-.17839.85473-.37288" transform="translate(-282.74804 -360.33748)"/>
          <path class="cls-13" d="M298.58585,375.52427l21.23794,55.4717q-.41187.17-.83174.32479l-21.23794-55.4717q.41964-.1547.83174-.32479" transform="translate(-282.74804 -360.33748)"/>
          <path class="cls-12" d="M297.75411,375.84906l21.23794,55.4717q-.4077.1503-.82165.28557l-21.23794-55.4717q.41374-.13515.82165-.28557" transform="translate(-282.74804 -360.33748)"/>
          <path class="cls-11" d="M296.93246,376.13463l21.23794,55.4717q-.40863.13348-.82213.25162l-21.23794-55.4717q.4133-.118.82213-.25162" transform="translate(-282.74804 -360.33748)"/>
          <path class="cls-10" d="M296.11033,376.38625l21.23794,55.4717q-.41436.11832-.83239.22052l-21.23794-55.4717q.41784-.10209.83239-.22052" transform="translate(-282.74804 -360.33748)"/>
          <path class="cls-9" d="M295.27794,376.60677l21.23794,55.4717q-.42556.104-.85367.1905l-21.23794-55.4717q.42789-.0864.85367-.1905" transform="translate(-282.74804 -360.33748)"/>
          <path class="cls-8" d="M294.42427,376.79727l21.23794,55.4717q-.44712.0903-.89558.16072L293.52869,376.958q.44822-.07029.89558-.16072" transform="translate(-282.74804 -360.33748)"/>
          <path class="cls-7" d="M293.52869,376.958l21.23794,55.4717q-.48482.076-.96943.1278l-21.23794-55.4717q.48431-.0516.96943-.1278" transform="translate(-282.74804 -360.33748)"/>
          <path class="cls-6" d="M292.55926,377.08579l21.23794,55.4717q-.532.05669-1.06146.08279l-.03034.00146L291.46746,377.17l.03034-.00146q.529-.02586,1.06146-.08279" transform="translate(-282.74804 -360.33748)"/>
          <path class="cls-5" d="M291.46746,377.17l21.23794,55.4717q-.6992.033-1.353.01L290.11442,377.18q.65335.02253,1.353-.01" transform="translate(-282.74804 -360.33748)"/>
          <path class="cls-4" d="M290.11442,377.18l21.23794,55.4717c-3.69754-.12755-6.25842-1.55514-7.08152-3.705L283.0329,373.475c.8231,2.14986,3.384,3.57745,7.08152,3.705" transform="translate(-282.74804 -360.33748)"/>
        </g>
      </g>
    </g>
    <path class="cls-37" d="M299.26344,360.35824c6.62817-.32409,10.27013,3.1845,8.13106,7.81495-2.14169,4.63612-9.26853,8.6713-15.8967,8.99539-6.62826.3241-10.27838-3.18412-8.1367-7.82024C285.50017,364.71789,292.63518,360.68234,299.26344,360.35824Zm-7.47215,16.175c6.12083-.29928,12.71451-4.02863,14.69492-8.31563,1.97776-4.28129-1.39544-7.52332-7.51627-7.224-6.12909.29969-12.72278,4.02907-14.70055,8.31035-1.98041,4.287,1.39281,7.529,7.5219,7.22931" transform="translate(-282.74804 -360.33748)"/>
  </g>
</svg>
