<svg id="Layer_1" data-name="Layer 1" xmlns="http://www.w3.org/2000/svg" viewBox="0 0 101.15062 74.47086">
  <defs>
    <style>
      .cls-1 {
        isolation: isolate;
      }

      .cls-2 {
        fill: #909090;
      }

      .cls-3 {
        fill: #a2a2a2;
      }

      .cls-4 {
        fill: #a8a8a8;
      }

      .cls-5 {
        fill: #d5d5d5;
      }

      .cls-6 {
        fill: #b1b1b1;
      }

      .cls-7 {
        fill: #949494;
      }
    </style>
  </defs>
  <g class="cls-1">
    <polygon class="cls-2" points="98.748 8.918 99.78 57.083 38.89 48.525 37.858 0.36 98.748 8.918"/>
    <polygon class="cls-3" points="37.858 0.36 38.89 48.525 2.402 65.553 1.37 17.388 37.858 0.36"/>
    <polygon class="cls-4" points="62.26 25.946 63.293 74.111 2.402 65.553 1.37 17.388 62.26 25.946"/>
    <polygon class="cls-5" points="98.748 8.918 99.78 57.083 63.293 74.111 62.26 25.946 98.748 8.918"/>
    <polygon class="cls-6" points="98.748 8.918 62.26 25.946 1.37 17.388 37.858 0.36 98.748 8.918"/>
    <polygon class="cls-2" points="62.604 26.306 63.636 74.471 1.032 65.672 0 17.507 62.604 26.306"/>
    <polygon class="cls-3" points="100.118 8.798 101.151 56.964 63.636 74.471 62.604 26.306 100.118 8.798"/>
    <path class="cls-7" d="M292.94387,359.26405l62.60375,8.79838-37.5147,17.50727-62.60375-8.79838Zm24.74566,25.94566,36.48794-17.02811L293.28724,359.624l-36.488,17.0281,60.89024,8.55757" transform="translate(-255.42917 -359.26405)"/>
  </g>
</svg>
