<svg id="Layer_1" data-name="Layer 1" xmlns="http://www.w3.org/2000/svg" viewBox="0 0 47.25972 76.06512">
  <defs>
    <style>
      .cls-1 {
        isolation: isolate;
      }

      .cls-2 {
        fill: #9e9e9e;
      }

      .cls-3 {
        fill: #848484;
      }

      .cls-4 {
        fill: #959595;
      }

      .cls-5 {
        fill: #b4b4b4;
      }

      .cls-6 {
        fill: #cbcbcb;
      }

      .cls-7 {
        fill: #8a8a8a;
      }
    </style>
  </defs>
  <g class="cls-1">
    <polygon class="cls-2" points="14.675 0.725 32.79 55.047 19.184 62.813 1.069 8.491 14.675 0.725"/>
    <polygon class="cls-3" points="28.175 3.105 46.29 57.428 32.79 55.047 14.675 0.725 28.175 3.105"/>
    <polygon class="cls-4" points="1.069 8.491 19.184 62.813 19.092 72.961 0.977 18.639 1.069 8.491"/>
    <polygon class="cls-5" points="28.175 3.105 46.29 57.428 46.191 67.575 28.076 13.253 28.175 3.105"/>
    <polygon class="cls-4" points="29.145 2.551 47.26 56.873 47.153 67.744 29.038 13.422 29.145 2.551"/>
    <polygon class="cls-6" points="28.076 13.253 46.191 67.575 32.592 75.341 14.477 21.019 28.076 13.253"/>
    <polygon class="cls-7" points="14.477 21.019 32.592 75.341 19.092 72.961 0.977 18.639 14.477 21.019"/>
    <polygon class="cls-6" points="28.175 3.105 28.076 13.253 14.477 21.019 0.977 18.639 1.069 8.491 14.675 0.725 28.175 3.105"/>
    <polygon class="cls-3" points="14.469 21.743 32.584 76.065 18.115 73.514 0 19.192 14.469 21.743"/>
    <polygon class="cls-2" points="29.038 13.422 47.153 67.744 32.584 76.065 14.469 21.743 29.038 13.422"/>
    <path class="cls-2" d="M175.14055,367.02144l-.10681,10.87089-14.56849,8.32087L145.996,383.66189l.10679-10.87086,14.56851-8.3209Zm-14.66776,18.468,13.59887-7.76675.09925-10.1471-13.49959-2.38034-13.60638,7.76542-.09174,10.14843,13.49959,2.38034" transform="translate(-145.99603 -364.47013)"/>
  </g>
</svg>
